#!OML:ASF E:\emotionWalksFemale\Project 1\Capture day 1\Session 1\Female1.ASF
:FULLY-SPECIFIED
:DEGREES
946
root -7.80173 15.4288 -23.8125 538.893 -7.58577 -537.655
lowerback 7.40385 -1.82923 -0.149964
upperback -4.32912 -2.4751 0.997225
thorax -8.68453 -1.19693 1.51046
lowerneck -2.44267 -6.17017 -12.9932
upperneck 11.8387 -10.7399 17.0406
head 5.53358 -5.41184 6.85801
rclavicle -4.87644e-015 -5.76476e-015
rhumerus -50.8401 3.82433 -73.6767
rradius 36.5526
rwrist 10.2222
rhand -7.83155 -55.2677
rfingers 7.12502
rthumb -161.929 95.5517
lclavicle -4.87644e-015 -5.76476e-015
lhumerus -32.8442 -13.4035 87.462
lradius 50.8241
lwrist -10.3307
lhand 0.202953 -27.5616
lfingers 7.12502
lthumb 25.7848 0.711071
rfemur -11.7621 10.6591 30.9453
rtibia 18.6051
rfoot -8.74238 -26.5849
rtoes 16.2069
lfemur -5.55936 -2.13954 -14.3659
ltibia 64.8218
lfoot 5.69964 -3.15246
ltoes -6.7233
947
root -7.77854 15.4291 -23.9861 538.833 -7.31266 -537.365
lowerback 6.9697 -1.64724 0.0138114
upperback -4.02614 -2.2002 1.08141
thorax -8.11137 -1.07255 1.44145
lowerneck -2.36698 -6.30864 -13.1367
upperneck 11.6402 -10.8988 17.1214
head 5.49884 -5.49066 6.89582
rclavicle 1.84746e-014 5.76476e-015
rhumerus -50.0649 4.40711 -74.4737
rradius 37.6854
rwrist 9.63315
rhand -7.61484 -55.3899
rfingers 7.12502
rthumb -161.721 95.449
lclavicle 1.84746e-014 5.76476e-015
lhumerus -33.4205 -12.1345 87.4169
lradius 49.0709
lwrist -12.0751
lhand -0.998602 -28.3109
lfingers 7.12502
lthumb 24.6335 0.123806
rfemur -10.9971 10.8986 31.6183
rtibia 18.5818
rfoot -9.14716 -26.6293
rtoes 15.2739
lfemur -7.54268 -1.84374 -13.9673
ltibia 66.5236
lfoot 3.57271 -2.82661
ltoes -5.79789
948
root -7.76229 15.4289 -24.1628 538.789 -6.85099 -537.203
lowerback 7.21461 -1.39632 0.15401
upperback -4.24241 -1.85356 1.10657
thorax -8.49964 -0.910527 1.35602
lowerneck -1.96347 -6.29196 -13.0243
upperneck 11.7531 -10.937 16.9228
head 5.45004 -5.53901 6.82171
rclavicle 1.01877e-015 4.37326e-015
rhumerus -50.1872 5.26687 -75.3248
rradius 39.0155
rwrist 8.97473
rhand -7.43792 -55.2911
rfingers 7.12502
rthumb -161.55 95.5638
lclavicle 1.01877e-015 4.37326e-015
lhumerus -35.4255 -10.1848 87.3854
lradius 48.2327
lwrist -13.428
lhand -2.04795 -28.7892
lfingers 7.12502
lthumb 23.6274 -0.220985
rfemur -10.3117 11.1816 32.1316
rtibia 18.7372
rfoot -9.34435 -26.5726
rtoes 13.31
lfemur -9.29351 -1.48468 -13.8187
ltibia 67.8437
lfoot 1.49335 -2.41423
ltoes -5.88382
949
root -7.75025 15.4191 -24.3341 538.706 -6.42937 -537.01
lowerback 7.46606 -1.19408 0.41362
upperback -4.35716 -1.55457 1.11058
thorax -8.78458 -0.779581 1.18196
lowerneck -1.9597 -6.34357 -12.9245
upperneck 12.0341 -11.0542 16.7592
head 5.53863 -5.60222 6.74044
rclavicle -1.63997e-015 -6.75868e-015
rhumerus -49.9429 5.90457 -76.0653
rradius 40.0001
rwrist 8.70086
rhand -7.28589 -54.5276
rfingers 7.12502
rthumb -161.404 96.3413
lclavicle -1.63997e-015 -6.75868e-015
lhumerus -36.7385 -9.34831 87.4778
lradius 46.4141
lwrist -11.5596
lhand -3.76503 -29.1685
lfingers 7.12502
lthumb 21.9796 -0.397262
rfemur -9.65261 11.4014 32.6729
rtibia 19.0519
rfoot -9.81922 -26.5052
rtoes 12.104
lfemur -10.9322 -1.17126 -13.7025
ltibia 68.8605
lfoot -0.264239 -2.01358
ltoes -6.24593
950
root -7.73597 15.4114 -24.5047 538.604 -6.19101 -536.874
lowerback 7.51773 -1.08411 0.572475
upperback -4.25059 -1.38343 1.1182
thorax -8.7053 -0.703654 1.07405
lowerneck -2.1333 -6.46365 -13.0062
upperneck 12.13 -11.222 16.806
head 5.63307 -5.67524 6.74781
rclavicle -1.36913e-014 -5.86415e-015
rhumerus -49.2032 6.4176 -76.6723
rradius 40.884
rwrist 8.81907
rhand -6.98518 -54.1954
rfingers 7.12502
rthumb -161.115 96.7014
lclavicle -1.36913e-014 -5.86415e-015
lhumerus -37.1333 -8.41303 87.1845
lradius 44.2269
lwrist -10.5201
lhand -3.45717 -29.0929
lfingers 7.12502
lthumb 22.2751 -0.35674
rfemur -8.97756 11.4498 33.1553
rtibia 19.4272
rfoot -10.5466 -26.421
rtoes 11.7684
lfemur -12.6007 -1.05816 -13.6935
ltibia 69.5652
lfoot -2.32888 -1.6336
ltoes -8.76198
951
root -7.72072 15.4081 -24.6798 538.546 -5.86008 -536.824
lowerback 7.50467 -0.942868 0.587244
upperback -4.19251 -1.18977 1.12477
thorax -8.637 -0.609281 1.04222
lowerneck -2.05045 -6.50866 -12.9954
upperneck 12.0664 -11.2783 16.7792
head 5.60618 -5.70668 6.73422
rclavicle -4.95719e-015 1.98785e-015
rhumerus -48.627 7.0944 -77.2779
rradius 42.0741
rwrist 8.92181
rhand -7.51831 -54.1024
rfingers 7.12502
rthumb -161.628 96.7453
lclavicle -4.95719e-015 1.98785e-015
lhumerus -37.8681 -7.05515 86.7416
lradius 41.9458
lwrist -11.1664
lhand -5.18893 -29.668
lfingers 7.12502
lthumb 20.6119 -0.74241
rfemur -8.42114 11.5848 33.5332
rtibia 19.9028
rfoot -11.2166 -26.3773
rtoes 11.3492
lfemur -14.2686 -0.996985 -13.786
ltibia 70.0879
lfoot -4.77043 -1.37212
ltoes -12.4141
952
root -7.7122 15.4005 -24.8526 538.575 -5.4322 -536.729
lowerback 7.34079 -0.779287 0.751953
upperback -4.13187 -0.954114 1.12742
thorax -8.48056 -0.504329 0.913145
lowerneck -2.01543 -6.54325 -12.9665
upperneck 12.0131 -11.3127 16.7402
head 5.58571 -5.72382 6.71397
rclavicle 7.00716e-015 6.06293e-015
rhumerus -47.9973 7.75111 -77.8127
rradius 43.2512
rwrist 8.89425
rhand -9.15709 -53.2756
rfingers 7.12502
rthumb -163.205 97.4308
lclavicle 7.00716e-015 6.06293e-015
lhumerus -38.9788 -4.92224 85.9271
lradius 40.6573
lwrist -12.3111
lhand -5.89817 -29.9945
lfingers 7.12502
lthumb 19.9302 -0.99654
rfemur -7.94542 11.7015 33.9206
rtibia 20.3912
rfoot -11.9475 -26.3027
rtoes 10.526
lfemur -16.1995 -0.647292 -13.9095
ltibia 70.3333
lfoot -6.63323 -0.760705
ltoes -23.3737
953
root -7.70638 15.3812 -25.0218 538.653 -5.03469 -536.645
lowerback 7.12564 -0.626311 0.952557
upperback -4.07596 -0.73368 1.08791
thorax -8.29906 -0.409631 0.722189
lowerneck -2.07855 -6.60239 -13.0085
upperneck 12.0062 -11.3949 16.8056
head 5.61436 -5.75934 6.73241
rclavicle 2.18663e-015 3.37934e-015
rhumerus -47.3297 8.23949 -78.2818
rradius 44.304
rwrist 8.88573
rhand -10.0337 -52.7314
rfingers 7.12502
rthumb -164.049 97.9054
lclavicle 2.18663e-015 3.37934e-015
lhumerus -40.1202 -2.66612 84.8255
lradius 39.563
lwrist -13.6961
lhand -5.94443 -29.9316
lfingers 7.12502
lthumb 19.8858 -0.929015
rfemur -7.39707 11.8114 34.2882
rtibia 20.7234
rfoot -12.7299 -26.2091
rtoes 9.45365
lfemur -17.7541 -0.559014 -13.9358
ltibia 70.574
lfoot -8.52259 -0.305633
ltoes -21.5182
954
root -7.69705 15.359 -25.1936 538.684 -4.61935 -536.42
lowerback 7.05887 -0.465652 1.20787
upperback -4.07349 -0.492317 1.12225
thorax -8.2605 -0.306241 0.580068
lowerneck -1.97404 -6.63116 -13.0644
upperneck 11.9172 -11.4356 16.853
head 5.58139 -5.785 6.75728
rclavicle -1.72197e-014 -1.59028e-015
rhumerus -46.7648 8.76219 -78.6919
rradius 45.3495
rwrist 8.82054
rhand -10.1451 -52.8436
rfingers 7.12502
rthumb -164.156 97.7846
lclavicle -1.72197e-014 -1.59028e-015
lhumerus -41.0998 -0.784492 83.719
lradius 37.7724
lwrist -15.0511
lhand -6.56733 -30.0747
lfingers 7.12502
lthumb 19.2869 -1.01108
rfemur -6.76888 11.8943 34.8282
rtibia 20.9893
rfoot -13.3612 -26.0521
rtoes 8.1446
lfemur -19.3879 -0.74669 -13.8673
ltibia 70.4989
lfoot -9.97541 0.392314
ltoes -18.9441
955
root -7.68806 15.3351 -25.364 538.488 -4.18747 -535.83
lowerback 7.35908 -0.341069 1.8457
upperback -4.09529 -0.243455 1.26539
thorax -8.46359 -0.219329 0.341496
lowerneck -1.82649 -6.66068 -13.1111
upperneck 11.8871 -11.496 16.8699
head 5.55946 -5.82547 6.77047
rclavicle 2.41648e-014 -7.7526e-015
rhumerus -46.3647 9.37136 -79.0935
rradius 46.5144
rwrist 8.72076
rhand -10.4471 -52.7839
rfingers 7.12502
rthumb -164.447 97.8215
lclavicle 2.41648e-014 -7.7526e-015
lhumerus -42.1569 1.29568 82.356
lradius 35.8324
lwrist -16.8867
lhand -7.82079 -30.8406
lfingers 7.12502
lthumb 18.0813 -1.66101
rfemur -5.93082 11.9046 35.7885
rtibia 21.2182
rfoot -13.8356 -25.9559
rtoes 6.98991
lfemur -20.728 -1.14567 -13.448
ltibia 70.2848
lfoot -11.4976 1.35081
ltoes -17.2733
